<svg xmlns="http://www.w3.org/2000/svg" xmlns:xlink="http://www.w3.org/1999/xlink" width="500" zoomAndPan="magnify" viewBox="0 0 375 374.999991" height="500" preserveAspectRatio="xMidYMid meet" version="1.0"><defs><g/></defs><g fill="#000000" fill-opacity="1"><g transform="translate(59.345813, 225.090046)"><g><path d="M 54.078125 -62.40625 C 56.753906 -63.207031 59.144531 -63.335938 61.25 -62.796875 C 63.363281 -62.265625 65.003906 -61.101562 66.171875 -59.3125 C 67.335938 -57.53125 67.875 -55.140625 67.78125 -52.140625 C 67.726562 -50.535156 67.539062 -48.960938 67.21875 -47.421875 C 67.164062 -47.078125 67.054688 -46.753906 66.890625 -46.453125 C 66.734375 -46.148438 66.472656 -45.925781 66.109375 -45.78125 C 65.992188 -45.71875 65.863281 -45.679688 65.71875 -45.671875 C 65.582031 -45.660156 65.460938 -45.707031 65.359375 -45.8125 C 65.304688 -45.90625 65.265625 -46.003906 65.234375 -46.109375 C 65.210938 -46.210938 65.203125 -46.316406 65.203125 -46.421875 C 65.566406 -48.191406 65.757812 -49.957031 65.78125 -51.71875 C 65.851562 -54.15625 65.4375 -56.191406 64.53125 -57.828125 C 63.625 -59.460938 62.316406 -60.566406 60.609375 -61.140625 C 58.910156 -61.722656 56.890625 -61.644531 54.546875 -60.90625 C 51.316406 -59.800781 48.160156 -57.972656 45.078125 -55.421875 C 42.003906 -52.867188 39.050781 -49.832031 36.21875 -46.3125 C 33.394531 -42.800781 30.734375 -39.039062 28.234375 -35.03125 C 25.742188 -31.019531 23.460938 -26.992188 21.390625 -22.953125 C 19.316406 -18.921875 17.5 -15.117188 15.9375 -11.546875 C 14.382812 -7.972656 13.128906 -4.863281 12.171875 -2.21875 C 11.503906 -0.414062 10.914062 1.394531 10.40625 3.21875 C 9.894531 5.050781 9.421875 6.890625 8.984375 8.734375 C 8.910156 8.984375 8.847656 9.25 8.796875 9.53125 C 8.660156 10.050781 8.53125 10.585938 8.40625 11.140625 C 8.238281 11.609375 8.070312 12.078125 7.90625 12.546875 C 7.5625 13.316406 6.957031 13.691406 6.09375 13.671875 C 5.695312 13.679688 5.375 13.578125 5.125 13.359375 C 4.882812 13.148438 4.695312 12.859375 4.5625 12.484375 C 4.5625 12.460938 4.554688 12.441406 4.546875 12.421875 C 4.191406 11.535156 3.90625 10.644531 3.6875 9.75 C 2.851562 5.75 2.082031 1.820312 1.375 -2.03125 C 0.613281 -6.09375 -0.191406 -10.144531 -1.046875 -14.1875 C -1.910156 -18.238281 -2.960938 -22.359375 -4.203125 -26.546875 C -4.335938 -26.910156 -4.4375 -27.304688 -4.5 -27.734375 C -4.539062 -28.128906 -4.367188 -28.382812 -3.984375 -28.5 C -3.609375 -28.570312 -3.304688 -28.460938 -3.078125 -28.171875 C -2.984375 -28.003906 -2.910156 -27.835938 -2.859375 -27.671875 C -2.859375 -27.648438 -2.851562 -27.613281 -2.84375 -27.5625 C -1.289062 -22.71875 -0.015625 -18.101562 0.984375 -13.71875 C 1.992188 -9.332031 2.9375 -4.890625 3.8125 -0.390625 C 4.394531 2.472656 5.015625 5.441406 5.671875 8.515625 C 5.671875 8.554688 5.675781 8.609375 5.6875 8.671875 C 5.71875 8.847656 5.769531 9.023438 5.84375 9.203125 C 5.914062 9.378906 6.0625 9.535156 6.28125 9.671875 C 6.46875 9.472656 6.597656 9.257812 6.671875 9.03125 C 6.742188 8.8125 6.800781 8.585938 6.84375 8.359375 C 6.851562 8.253906 6.863281 8.15625 6.875 8.0625 C 7.644531 4.613281 8.625 1.234375 9.8125 -2.078125 C 11 -5.398438 12.28125 -8.679688 13.65625 -11.921875 C 14.675781 -14.265625 15.953125 -16.988281 17.484375 -20.09375 C 19.015625 -23.195312 20.769531 -26.488281 22.75 -29.96875 C 24.738281 -33.445312 26.921875 -36.90625 29.296875 -40.34375 C 31.671875 -43.78125 34.191406 -47 36.859375 -50 C 39.535156 -53 42.316406 -55.585938 45.203125 -57.765625 C 48.085938 -59.941406 51.046875 -61.488281 54.078125 -62.40625 Z M 54.078125 -62.40625 "/></g></g></g><g fill="#000000" fill-opacity="1"><g transform="translate(82.710466, 221.295072)"><g><path d="M 2.28125 -4.015625 C 3.09375 -4.140625 3.441406 -3.789062 3.328125 -2.96875 C 3.273438 -2.632812 3.195312 -2.328125 3.09375 -2.046875 C 3 -1.785156 2.84375 -1.59375 2.625 -1.46875 C 2.40625 -1.351562 2.148438 -1.332031 1.859375 -1.40625 C 1.617188 -1.457031 1.476562 -1.59375 1.4375 -1.8125 C 1.363281 -2.15625 1.3125 -2.519531 1.28125 -2.90625 C 1.238281 -3.5625 1.570312 -3.929688 2.28125 -4.015625 Z M 2.28125 -4.015625 "/></g></g></g><g fill="#000000" fill-opacity="1"><g transform="translate(88.432123, 220.365739)"><g/></g></g><g fill="#000000" fill-opacity="1"><g transform="translate(99.726035, 218.53134)"><g><path d="M 108.25 -7.375 C 108.289062 -7.363281 108.320312 -7.320312 108.34375 -7.25 C 108.375 -7.1875 108.390625 -7.132812 108.390625 -7.09375 C 108.367188 -7.03125 108.34375 -6.972656 108.3125 -6.921875 C 108.289062 -6.878906 108.253906 -6.835938 108.203125 -6.796875 C 108.015625 -6.679688 107.820312 -6.617188 107.625 -6.609375 C 107.425781 -6.578125 107.242188 -6.554688 107.078125 -6.546875 C 106.972656 -6.554688 106.890625 -6.554688 106.828125 -6.546875 C 105.890625 -6.484375 104.953125 -6.429688 104.015625 -6.390625 C 101.835938 -6.253906 99.671875 -6.113281 97.515625 -5.96875 C 93.328125 -5.675781 89.140625 -5.347656 84.953125 -4.984375 C 79.097656 -4.441406 73.253906 -3.804688 67.421875 -3.078125 C 63.234375 -2.554688 59.050781 -1.988281 54.875 -1.375 C 54.414062 -1.320312 53.953125 -1.257812 53.484375 -1.1875 C 53.003906 -1.101562 52.535156 -1.035156 52.078125 -0.984375 C 49.234375 -0.597656 46.394531 -0.175781 43.5625 0.28125 L 43.5 0.296875 C 41.851562 0.566406 40.210938 0.867188 38.578125 1.203125 C 37.953125 1.328125 37.347656 1.4375 36.765625 1.53125 C 36.015625 1.675781 35.273438 1.945312 34.546875 2.34375 C 29.128906 5.289062 23.570312 7.710938 17.875 9.609375 C 16.21875 10.148438 14.5625 10.648438 12.90625 11.109375 C 11.257812 11.578125 9.585938 11.945312 7.890625 12.21875 C 7.347656 12.3125 6.800781 12.394531 6.25 12.46875 C 5.425781 12.601562 4.609375 12.617188 3.796875 12.515625 C 3.472656 12.492188 3.164062 12.445312 2.875 12.375 C 2.632812 12.320312 2.414062 12.222656 2.21875 12.078125 C 2.019531 11.941406 1.910156 11.726562 1.890625 11.4375 C 1.898438 11.15625 1.984375 10.894531 2.140625 10.65625 C 2.296875 10.425781 2.488281 10.226562 2.71875 10.0625 C 3.414062 9.5 4.175781 9.070312 5 8.78125 C 5.40625 8.601562 5.816406 8.429688 6.234375 8.265625 C 7.609375 7.710938 9 7.210938 10.40625 6.765625 C 16.050781 4.953125 21.726562 3.457031 27.4375 2.28125 C 27.78125 2.1875 28.113281 2.101562 28.4375 2.03125 C 30.195312 1.664062 31.960938 1.304688 33.734375 0.953125 C 34.367188 0.828125 34.984375 0.601562 35.578125 0.28125 C 37.640625 -0.894531 39.648438 -2.15625 41.609375 -3.5 C 43.566406 -4.84375 45.457031 -6.320312 47.28125 -7.9375 C 48.8125 -9.226562 50.171875 -10.703125 51.359375 -12.359375 C 52.054688 -13.242188 52.582031 -14.210938 52.9375 -15.265625 C 53.382812 -16.785156 53.0625 -17.976562 51.96875 -18.84375 C 51.195312 -19.425781 50.332031 -19.828125 49.375 -20.046875 C 48.09375 -20.398438 46.785156 -20.640625 45.453125 -20.765625 C 44.128906 -20.898438 42.789062 -20.972656 41.4375 -20.984375 C 37.601562 -20.992188 33.738281 -20.753906 29.84375 -20.265625 C 29.707031 -20.234375 29.570312 -20.207031 29.4375 -20.1875 C 29.289062 -20.164062 29.140625 -20.144531 28.984375 -20.125 C 28.660156 -20.007812 28.441406 -19.769531 28.328125 -19.40625 C 28.265625 -19.226562 28.207031 -19.066406 28.15625 -18.921875 C 28.050781 -18.578125 27.929688 -18.222656 27.796875 -17.859375 C 26.878906 -14.867188 25.957031 -11.875 25.03125 -8.875 C 24.289062 -6.351562 23.519531 -3.832031 22.71875 -1.3125 C 22.707031 -1.21875 22.6875 -1.132812 22.65625 -1.0625 C 22.570312 -0.75 22.46875 -0.457031 22.34375 -0.1875 C 22.175781 0.0703125 21.960938 0.203125 21.703125 0.203125 C 21.535156 0.242188 21.378906 0.253906 21.234375 0.234375 C 20.941406 0.148438 20.816406 -0.0351562 20.859375 -0.328125 C 21.003906 -0.992188 21.171875 -1.640625 21.359375 -2.265625 C 22.492188 -6.234375 23.632812 -10.1875 24.78125 -14.125 C 25.144531 -15.382812 25.503906 -16.632812 25.859375 -17.875 C 25.890625 -18 25.921875 -18.113281 25.953125 -18.21875 C 26.046875 -18.5 26.125 -18.78125 26.1875 -19.0625 C 26.28125 -19.476562 26.128906 -19.664062 25.734375 -19.625 C 25.535156 -19.601562 25.332031 -19.578125 25.125 -19.546875 C 24.863281 -19.523438 24.609375 -19.503906 24.359375 -19.484375 C 24.328125 -19.472656 24.273438 -19.460938 24.203125 -19.453125 C 23.890625 -19.429688 23.597656 -19.4375 23.328125 -19.46875 C 23.054688 -19.507812 22.867188 -19.691406 22.765625 -20.015625 C 22.703125 -20.378906 22.78125 -20.671875 23 -20.890625 C 23.21875 -21.109375 23.476562 -21.300781 23.78125 -21.46875 C 23.882812 -21.53125 23.976562 -21.578125 24.0625 -21.609375 C 24.820312 -22.085938 25.613281 -22.535156 26.4375 -22.953125 C 26.519531 -23.003906 26.613281 -23.050781 26.71875 -23.09375 C 27.34375 -23.382812 27.769531 -23.878906 28 -24.578125 C 29.007812 -27.585938 30.03125 -30.601562 31.0625 -33.625 C 31.40625 -34.65625 31.753906 -35.707031 32.109375 -36.78125 C 32.160156 -36.925781 32.207031 -37.070312 32.25 -37.21875 C 32.34375 -37.519531 32.453125 -37.816406 32.578125 -38.109375 C 32.742188 -38.472656 33.007812 -38.644531 33.375 -38.625 C 33.519531 -38.675781 33.671875 -38.691406 33.828125 -38.671875 C 34.179688 -38.578125 34.328125 -38.34375 34.265625 -37.96875 C 34.265625 -37.945312 34.253906 -37.9375 34.234375 -37.9375 C 34.097656 -37.132812 33.921875 -36.363281 33.703125 -35.625 C 33.109375 -33.789062 32.5 -31.957031 31.875 -30.125 C 31.6875 -29.507812 31.488281 -28.894531 31.28125 -28.28125 C 31.15625 -27.96875 31.046875 -27.660156 30.953125 -27.359375 C 30.765625 -26.816406 30.585938 -26.28125 30.421875 -25.75 C 30.421875 -25.75 30.421875 -25.734375 30.421875 -25.703125 C 30.390625 -25.617188 30.367188 -25.53125 30.359375 -25.4375 C 30.347656 -25.34375 30.394531 -25.28125 30.5 -25.25 C 30.582031 -25.238281 30.660156 -25.226562 30.734375 -25.21875 L 30.78125 -25.25 C 30.90625 -25.300781 31.046875 -25.363281 31.203125 -25.4375 C 31.242188 -25.445312 31.28125 -25.46875 31.3125 -25.5 C 35.863281 -27.800781 40.40625 -30.148438 44.9375 -32.546875 C 49.46875 -34.941406 53.945312 -37.460938 58.375 -40.109375 C 58.46875 -40.160156 58.5625 -40.203125 58.65625 -40.234375 C 60.007812 -41.078125 61.351562 -41.914062 62.6875 -42.75 C 64.019531 -43.582031 65.332031 -44.460938 66.625 -45.390625 C 67.582031 -46.066406 68.46875 -46.828125 69.28125 -47.671875 C 71 -49.597656 70.851562 -51.050781 68.84375 -52.03125 C 67.894531 -52.457031 66.894531 -52.738281 65.84375 -52.875 C 64.789062 -53.019531 63.738281 -53.078125 62.6875 -53.046875 C 60.125 -53.003906 57.5625 -52.773438 55 -52.359375 L 54.953125 -52.359375 C 52.472656 -51.953125 49.992188 -51.429688 47.515625 -50.796875 C 42.003906 -49.398438 36.578125 -47.546875 31.234375 -45.234375 C 26.316406 -43.140625 21.570312 -40.597656 17 -37.609375 C 15.800781 -36.828125 14.644531 -35.972656 13.53125 -35.046875 C 13.226562 -34.765625 12.914062 -34.507812 12.59375 -34.28125 C 12.40625 -34.175781 12.21875 -34.125 12.03125 -34.125 C 11.800781 -34.050781 11.59375 -34.085938 11.40625 -34.234375 C 11.28125 -34.367188 11.253906 -34.507812 11.328125 -34.65625 C 11.410156 -34.800781 11.519531 -34.929688 11.65625 -35.046875 C 12.582031 -35.960938 13.578125 -36.765625 14.640625 -37.453125 C 14.660156 -37.453125 14.679688 -37.457031 14.703125 -37.46875 C 18.984375 -40.4375 23.453125 -42.96875 28.109375 -45.0625 C 34.804688 -48.125 41.65625 -50.476562 48.65625 -52.125 C 50.832031 -52.632812 53.003906 -53.066406 55.171875 -53.421875 C 57.535156 -53.816406 59.894531 -54.070312 62.25 -54.1875 C 64.46875 -54.332031 66.628906 -54.160156 68.734375 -53.671875 C 69.722656 -53.484375 70.613281 -53.097656 71.40625 -52.515625 C 72.0625 -51.984375 72.414062 -51.335938 72.46875 -50.578125 C 72.53125 -49.828125 72.296875 -49.039062 71.765625 -48.21875 C 71.054688 -47.238281 70.234375 -46.394531 69.296875 -45.6875 C 68.171875 -44.789062 67.003906 -43.953125 65.796875 -43.171875 C 64.597656 -42.390625 63.382812 -41.628906 62.15625 -40.890625 C 62.125 -40.859375 62.070312 -40.820312 62 -40.78125 C 57.726562 -38.15625 53.394531 -35.65625 49 -33.28125 C 44.601562 -30.914062 40.175781 -28.609375 35.71875 -26.359375 C 34.976562 -25.984375 34.234375 -25.597656 33.484375 -25.203125 C 32.460938 -24.648438 31.425781 -24.109375 30.375 -23.578125 C 29.925781 -23.390625 29.585938 -23.066406 29.359375 -22.609375 C 29.179688 -22.171875 29.125 -21.84375 29.1875 -21.625 C 29.25 -21.40625 29.523438 -21.328125 30.015625 -21.390625 C 31.253906 -21.546875 32.507812 -21.6875 33.78125 -21.8125 C 33.863281 -21.820312 33.9375 -21.832031 34 -21.84375 C 36.382812 -22.070312 38.757812 -22.195312 41.125 -22.21875 C 43.488281 -22.238281 45.820312 -22.09375 48.125 -21.78125 C 49.113281 -21.625 50.078125 -21.414062 51.015625 -21.15625 C 51.648438 -21 52.265625 -20.765625 52.859375 -20.453125 C 55.390625 -19.066406 55.914062 -16.890625 54.4375 -13.921875 C 53.925781 -12.929688 53.316406 -12.015625 52.609375 -11.171875 C 50.859375 -9.078125 48.914062 -7.207031 46.78125 -5.5625 C 44.9375 -4.113281 43.050781 -2.75 41.125 -1.46875 C 40.882812 -1.34375 40.648438 -1.191406 40.421875 -1.015625 C 40.304688 -0.929688 40.171875 -0.847656 40.015625 -0.765625 C 40.179688 -0.578125 40.320312 -0.472656 40.4375 -0.453125 C 40.5625 -0.429688 40.691406 -0.441406 40.828125 -0.484375 C 40.828125 -0.484375 40.835938 -0.488281 40.859375 -0.5 C 41.222656 -0.53125 41.582031 -0.578125 41.9375 -0.640625 L 41.984375 -0.640625 C 42.222656 -0.679688 42.457031 -0.734375 42.6875 -0.796875 C 43.78125 -0.972656 44.875 -1.148438 45.96875 -1.328125 C 52.476562 -2.359375 58.976562 -3.257812 65.46875 -4.03125 C 72.519531 -4.9375 79.566406 -5.640625 86.609375 -6.140625 C 88.867188 -6.328125 91.117188 -6.492188 93.359375 -6.640625 C 96.054688 -6.859375 98.753906 -7.066406 101.453125 -7.265625 C 103.035156 -7.359375 104.609375 -7.421875 106.171875 -7.453125 C 106.554688 -7.460938 106.953125 -7.476562 107.359375 -7.5 C 107.640625 -7.5 107.9375 -7.457031 108.25 -7.375 Z M 26.703125 -21.09375 C 26.734375 -21.125 26.765625 -21.171875 26.796875 -21.234375 C 26.835938 -21.304688 26.863281 -21.363281 26.875 -21.40625 C 26.875 -21.457031 26.859375 -21.492188 26.828125 -21.515625 C 26.804688 -21.535156 26.765625 -21.566406 26.703125 -21.609375 C 26.703125 -21.609375 26.691406 -21.617188 26.671875 -21.640625 C 26.453125 -21.546875 26.253906 -21.390625 26.078125 -21.171875 C 26.046875 -21.109375 26.039062 -21.050781 26.0625 -21 C 26.082031 -20.945312 26.128906 -20.925781 26.203125 -20.9375 C 26.367188 -20.957031 26.535156 -21.007812 26.703125 -21.09375 Z M 29.046875 3.703125 C 29.085938 3.660156 29.132812 3.632812 29.1875 3.625 C 29.257812 3.59375 29.332031 3.539062 29.40625 3.46875 C 29.488281 3.394531 29.539062 3.304688 29.5625 3.203125 C 29.507812 3.117188 29.457031 3.070312 29.40625 3.0625 C 29.375 3.070312 29.347656 3.078125 29.328125 3.078125 C 24.078125 4.160156 18.84375 5.46875 13.625 7 C 11.039062 7.738281 8.5 8.65625 6 9.75 C 5.9375 9.789062 5.875 9.828125 5.8125 9.859375 C 5.375 10.023438 4.992188 10.28125 4.671875 10.625 C 4.585938 10.71875 4.539062 10.800781 4.53125 10.875 C 4.519531 10.957031 4.578125 11.03125 4.703125 11.09375 C 4.929688 11.144531 5.175781 11.175781 5.4375 11.1875 C 6.3125 11.21875 7.1875 11.164062 8.0625 11.03125 C 8.8125 10.90625 9.554688 10.742188 10.296875 10.546875 C 16.679688 8.953125 22.929688 6.671875 29.046875 3.703125 Z M 29.046875 3.703125 "/></g></g></g><g fill="#000000" fill-opacity="1"><g transform="translate(159.019077, 208.900743)"><g><path d="M 11.015625 -8.921875 C 10.847656 -8.734375 10.675781 -8.5625 10.5 -8.40625 C 9.925781 -7.90625 9.398438 -7.5 8.921875 -7.1875 C 8.441406 -6.875 7.875 -6.539062 7.21875 -6.1875 C 6.238281 -5.707031 5.5625 -5.664062 5.1875 -6.0625 C 4.820312 -6.46875 4.679688 -7.082031 4.765625 -7.90625 C 4.859375 -9.101562 4.882812 -9.96875 4.84375 -10.5 C 4.800781 -11.03125 4.597656 -11.179688 4.234375 -10.953125 C 3.867188 -10.734375 3.238281 -10.070312 2.34375 -8.96875 C 1.113281 -7.488281 0.113281 -5.863281 -0.65625 -4.09375 C -0.757812 -3.851562 -0.890625 -3.644531 -1.046875 -3.46875 C -1.210938 -3.300781 -1.441406 -3.195312 -1.734375 -3.15625 C -2.003906 -3.101562 -2.207031 -3.140625 -2.34375 -3.265625 C -2.476562 -3.390625 -2.515625 -3.582031 -2.453125 -3.84375 C -2.066406 -5.226562 -1.671875 -6.601562 -1.265625 -7.96875 C -0.554688 -10.363281 0.117188 -12.742188 0.765625 -15.109375 C 1.273438 -16.867188 1.769531 -18.628906 2.25 -20.390625 C 2.550781 -21.421875 2.84375 -22.457031 3.125 -23.5 C 3.15625 -23.59375 3.1875 -23.691406 3.21875 -23.796875 C 3.238281 -23.898438 3.265625 -24.015625 3.296875 -24.140625 C 3.335938 -24.265625 3.382812 -24.390625 3.4375 -24.515625 C 3.488281 -24.640625 3.585938 -24.75 3.734375 -24.84375 C 3.878906 -24.9375 4.035156 -25.003906 4.203125 -25.046875 C 4.367188 -25.097656 4.492188 -25.113281 4.578125 -25.09375 C 4.734375 -25.03125 4.828125 -24.945312 4.859375 -24.84375 C 4.890625 -24.738281 4.890625 -24.632812 4.859375 -24.53125 C 4.835938 -24.507812 4.832031 -24.472656 4.84375 -24.421875 C 4.738281 -23.796875 4.613281 -23.191406 4.46875 -22.609375 C 3.707031 -19.359375 2.820312 -16.132812 1.8125 -12.9375 C 1.726562 -12.71875 1.632812 -12.457031 1.53125 -12.15625 C 1.382812 -11.71875 1.25 -11.289062 1.125 -10.875 C 1 -10.457031 0.976562 -10.1875 1.0625 -10.0625 C 1.144531 -9.945312 1.425781 -10.101562 1.90625 -10.53125 C 2.039062 -10.664062 2.164062 -10.796875 2.28125 -10.921875 C 2.644531 -11.265625 3.015625 -11.597656 3.390625 -11.921875 C 3.703125 -12.203125 4.082031 -12.390625 4.53125 -12.484375 C 5.550781 -12.734375 6.210938 -12.363281 6.515625 -11.375 C 6.628906 -10.957031 6.675781 -10.546875 6.65625 -10.140625 C 6.632812 -9.734375 6.601562 -9.328125 6.5625 -8.921875 C 6.5625 -8.804688 6.5625 -8.695312 6.5625 -8.59375 C 6.488281 -7.882812 6.597656 -7.5 6.890625 -7.4375 C 7.191406 -7.375 7.570312 -7.488281 8.03125 -7.78125 C 8.488281 -8.070312 8.941406 -8.410156 9.390625 -8.796875 C 9.722656 -9.035156 10.007812 -9.238281 10.25 -9.40625 C 10.488281 -9.582031 10.675781 -9.671875 10.8125 -9.671875 C 11.050781 -9.671875 11.171875 -9.585938 11.171875 -9.421875 C 11.179688 -9.265625 11.128906 -9.097656 11.015625 -8.921875 Z M 11.015625 -8.921875 "/></g></g></g><g fill="#000000" fill-opacity="1"><g transform="translate(170.417568, 207.049358)"><g><path d="M 9.609375 -9.375 C 9.867188 -9.28125 9.9375 -8.953125 9.8125 -8.390625 C 9.582031 -7.972656 9.328125 -7.570312 9.046875 -7.1875 C 8.773438 -6.800781 8.46875 -6.445312 8.125 -6.125 C 8.101562 -6.125 8.097656 -6.113281 8.109375 -6.09375 C 7.859375 -5.875 7.597656 -5.671875 7.328125 -5.484375 C 5.097656 -4.253906 3.804688 -4.566406 3.453125 -6.421875 C 2.628906 -5.421875 2.066406 -4.800781 1.765625 -4.5625 C 1.046875 -3.96875 0.222656 -3.625 -0.703125 -3.53125 C -1.378906 -3.445312 -1.867188 -3.570312 -2.171875 -3.90625 C -2.472656 -4.25 -2.535156 -4.757812 -2.359375 -5.4375 C -2.078125 -6.519531 -1.597656 -7.519531 -0.921875 -8.4375 C -0.128906 -9.46875 0.804688 -10.335938 1.890625 -11.046875 C 2.453125 -11.460938 3.070312 -11.6875 3.75 -11.71875 C 4.445312 -11.789062 4.921875 -11.476562 5.171875 -10.78125 C 5.273438 -10.5625 5.25 -10.351562 5.09375 -10.15625 C 4.914062 -9.9375 4.675781 -9.851562 4.375 -9.90625 C 4.351562 -9.894531 4.320312 -9.890625 4.28125 -9.890625 C 4.25 -9.898438 4.21875 -9.914062 4.1875 -9.9375 C 3.84375 -10.289062 3.523438 -10.410156 3.234375 -10.296875 C 2.953125 -10.179688 2.664062 -10 2.375 -9.75 C 0.988281 -8.601562 0.0507812 -7.164062 -0.4375 -5.4375 C -0.46875 -5.375 -0.476562 -5.300781 -0.46875 -5.21875 C -0.46875 -5.132812 -0.429688 -5.066406 -0.359375 -5.015625 C -0.171875 -4.984375 0.0195312 -5.023438 0.21875 -5.140625 C 0.425781 -5.265625 0.625 -5.425781 0.8125 -5.625 C 1.007812 -5.820312 1.171875 -5.988281 1.296875 -6.125 C 1.316406 -6.164062 1.328125 -6.1875 1.328125 -6.1875 C 1.953125 -6.90625 2.5625 -7.644531 3.15625 -8.40625 C 3.414062 -8.78125 3.765625 -9.023438 4.203125 -9.140625 C 4.867188 -9.242188 5.203125 -8.992188 5.203125 -8.390625 C 5.171875 -8.148438 5.132812 -7.914062 5.09375 -7.6875 C 4.988281 -6.707031 5.066406 -6.15625 5.328125 -6.03125 C 5.597656 -5.90625 5.960938 -5.960938 6.421875 -6.203125 C 6.890625 -6.453125 7.332031 -6.84375 7.75 -7.375 C 8.175781 -7.914062 8.523438 -8.40625 8.796875 -8.84375 C 9.078125 -9.289062 9.347656 -9.46875 9.609375 -9.375 Z M 9.609375 -9.375 "/></g></g></g><g fill="#000000" fill-opacity="1"><g transform="translate(180.322155, 205.440618)"><g><path d="M 10.625 -9.375 C 10.820312 -9.207031 10.679688 -8.8125 10.203125 -8.1875 C 9.722656 -7.5625 9.195312 -7.019531 8.625 -6.5625 C 8.0625 -6.101562 7.398438 -5.632812 6.640625 -5.15625 C 6.140625 -4.8125 5.566406 -4.628906 4.921875 -4.609375 C 4.285156 -4.597656 3.910156 -4.925781 3.796875 -5.59375 C 3.691406 -6.257812 3.742188 -6.945312 3.953125 -7.65625 C 4.140625 -8.375 4.148438 -8.726562 3.984375 -8.71875 C 3.816406 -8.707031 3.476562 -8.488281 2.96875 -8.0625 C 1.707031 -6.894531 0.566406 -5.609375 -0.453125 -4.203125 C -0.722656 -3.753906 -1.113281 -3.46875 -1.625 -3.34375 C -1.882812 -3.300781 -2.097656 -3.351562 -2.265625 -3.5 C -2.429688 -3.644531 -2.476562 -3.8125 -2.40625 -4 C -1.789062 -5.769531 -1.164062 -7.519531 -0.53125 -9.25 C -0.382812 -9.613281 -0.117188 -9.867188 0.265625 -10.015625 C 0.441406 -10.078125 0.613281 -10.046875 0.78125 -9.921875 C 0.945312 -9.804688 1.039062 -9.664062 1.0625 -9.5 C 1.070312 -9.34375 1.035156 -9.144531 0.953125 -8.90625 C 0.921875 -8.78125 0.894531 -8.648438 0.875 -8.515625 C 0.851562 -8.378906 0.851562 -8.273438 0.875 -8.203125 C 0.90625 -8.140625 0.972656 -8.125 1.078125 -8.15625 C 1.222656 -8.257812 1.359375 -8.367188 1.484375 -8.484375 C 1.828125 -8.773438 2.160156 -9.046875 2.484375 -9.296875 C 2.753906 -9.523438 3.046875 -9.734375 3.359375 -9.921875 C 3.679688 -10.117188 4.023438 -10.273438 4.390625 -10.390625 C 4.972656 -10.523438 5.414062 -10.457031 5.71875 -10.1875 C 6.019531 -9.925781 6.125 -9.507812 6.03125 -8.9375 C 5.894531 -8.382812 5.757812 -7.851562 5.625 -7.34375 C 5.4375 -6.832031 5.453125 -6.472656 5.671875 -6.265625 C 5.890625 -6.066406 6.671875 -6.476562 8.015625 -7.5 L 9.03125 -8.328125 C 9.988281 -9.191406 10.519531 -9.539062 10.625 -9.375 Z M 10.625 -9.375 "/></g></g></g><g fill="#000000" fill-opacity="1"><g transform="translate(191.272474, 203.662026)"><g><path d="M -0.046875 -2.703125 C -0.992188 -2.546875 -1.550781 -2.960938 -1.71875 -3.953125 C -1.914062 -5.160156 -1.476562 -7.410156 -0.40625 -10.703125 C -0.363281 -10.847656 -0.257812 -10.9375 -0.09375 -10.96875 C 0.53125 -11.070312 0.882812 -10.875 0.96875 -10.375 C 0.988281 -10.195312 0.960938 -9.96875 0.890625 -9.6875 C 0.859375 -9.601562 0.546875 -8.207031 -0.046875 -5.5 C -0.128906 -5.039062 -0.15625 -4.710938 -0.125 -4.515625 C -0.0820312 -4.296875 0.0351562 -4.203125 0.234375 -4.234375 C 0.960938 -4.359375 2.570312 -6.476562 5.0625 -10.59375 C 5.382812 -11.144531 5.738281 -11.453125 6.125 -11.515625 C 6.695312 -11.609375 7.019531 -11.445312 7.09375 -11.03125 C 7.125 -10.863281 7.046875 -10.226562 6.859375 -9.125 C 6.617188 -7.625 6.515625 -6.769531 6.546875 -6.5625 C 6.609375 -6.226562 6.75 -6.078125 6.96875 -6.109375 C 7.507812 -6.203125 8.941406 -7.4375 11.265625 -9.8125 C 11.390625 -9.96875 11.507812 -10.050781 11.625 -10.0625 C 11.875 -10.101562 12.035156 -9.921875 12.109375 -9.515625 C 12.117188 -9.398438 12.09375 -9.300781 12.03125 -9.21875 C 10.832031 -7.789062 9.789062 -6.679688 8.90625 -5.890625 C 8.101562 -5.171875 7.351562 -4.753906 6.65625 -4.640625 L 6.4375 -4.609375 C 5.382812 -4.660156 4.742188 -5.378906 4.515625 -6.765625 C 3.578125 -5.617188 2.796875 -4.6875 2.171875 -3.96875 C 1.554688 -3.257812 0.816406 -2.835938 -0.046875 -2.703125 Z M -0.046875 -2.703125 "/></g></g></g><g fill="#000000" fill-opacity="1"><g transform="translate(203.552362, 201.667481)"><g/></g></g><g fill="#000000" fill-opacity="1"><g transform="translate(214.846274, 199.833081)"><g><path d="M 69.578125 -30.625 C 69.828125 -30.613281 70.03125 -30.546875 70.1875 -30.421875 C 70.351562 -30.296875 70.410156 -30.15625 70.359375 -30 C 70.296875 -29.863281 70.210938 -29.769531 70.109375 -29.71875 C 70.003906 -29.664062 69.882812 -29.640625 69.75 -29.640625 C 69.59375 -29.617188 69.421875 -29.601562 69.234375 -29.59375 C 66.859375 -29.269531 63.742188 -28.617188 59.890625 -27.640625 C 56.035156 -26.671875 52.941406 -25.828125 50.609375 -25.109375 C 48.804688 -24.566406 47.003906 -24.003906 45.203125 -23.421875 C 45.160156 -23.421875 45.109375 -23.398438 45.046875 -23.359375 C 44.296875 -23.128906 43.640625 -22.734375 43.078125 -22.171875 C 40.992188 -20.191406 38.804688 -18.347656 36.515625 -16.640625 C 34.234375 -14.941406 31.878906 -13.328125 29.453125 -11.796875 C 25.546875 -9.253906 21.503906 -6.925781 17.328125 -4.8125 C 16.460938 -4.4375 15.894531 -3.785156 15.625 -2.859375 C 14.289062 1.347656 12.875 5.492188 11.375 9.578125 C 10.019531 13.191406 8.753906 16.835938 7.578125 20.515625 C 7.585938 20.535156 7.582031 20.554688 7.5625 20.578125 C 7.53125 20.765625 7.460938 20.925781 7.359375 21.0625 C 7.210938 21.238281 7.007812 21.328125 6.75 21.328125 C 6.632812 21.390625 6.507812 21.410156 6.375 21.390625 C 6.082031 21.328125 5.914062 21.148438 5.875 20.859375 C 5.820312 20.367188 5.90625 19.890625 6.125 19.421875 C 6.132812 19.398438 6.140625 19.378906 6.140625 19.359375 C 7.367188 15.910156 8.578125 12.472656 9.765625 9.046875 C 10.960938 5.628906 12.085938 2.175781 13.140625 -1.3125 C 13.222656 -1.59375 13.3125 -1.882812 13.40625 -2.1875 C 13.4375 -2.34375 13.46875 -2.5 13.5 -2.65625 C 13.34375 -2.675781 13.195312 -2.691406 13.0625 -2.703125 C 12.8125 -2.609375 12.578125 -2.492188 12.359375 -2.359375 C 12.273438 -2.328125 12.195312 -2.28125 12.125 -2.21875 C 9.195312 -0.851562 6.21875 0.390625 3.1875 1.515625 C 1.070312 2.265625 -1.066406 2.894531 -3.234375 3.40625 C -3.347656 3.445312 -3.453125 3.476562 -3.546875 3.5 C -3.742188 3.550781 -3.953125 3.59375 -4.171875 3.625 C -5.023438 3.769531 -5.867188 3.773438 -6.703125 3.640625 C -7.347656 3.515625 -7.765625 3.222656 -7.953125 2.765625 C -8.148438 2.304688 -8.09375 1.773438 -7.78125 1.171875 C -7.332031 0.441406 -6.769531 -0.1875 -6.09375 -0.71875 C -4.570312 -2.039062 -2.9375 -3.191406 -1.1875 -4.171875 C 3.46875 -6.859375 8.238281 -9.332031 13.125 -11.59375 C 13.394531 -11.71875 13.679688 -11.84375 13.984375 -11.96875 C 14.617188 -12.21875 15.195312 -12.507812 15.71875 -12.84375 C 16.25 -13.1875 16.601562 -13.695312 16.78125 -14.375 C 17.457031 -17.019531 18.09375 -19.664062 18.6875 -22.3125 C 19.28125 -24.96875 19.796875 -27.65625 20.234375 -30.375 C 20.222656 -30.394531 20.226562 -30.425781 20.25 -30.46875 C 20.300781 -30.945312 20.40625 -31.414062 20.5625 -31.875 C 20.625 -32.019531 20.71875 -32.128906 20.84375 -32.203125 C 20.976562 -32.273438 21.128906 -32.3125 21.296875 -32.3125 C 21.398438 -32.363281 21.519531 -32.382812 21.65625 -32.375 C 22 -32.351562 22.222656 -32.164062 22.328125 -31.8125 C 22.441406 -31.132812 22.425781 -30.460938 22.28125 -29.796875 C 22.28125 -29.773438 22.273438 -29.738281 22.265625 -29.6875 C 21.710938 -26.21875 21.03125 -22.789062 20.21875 -19.40625 C 20 -18.46875 19.785156 -17.546875 19.578125 -16.640625 C 19.484375 -16.296875 19.394531 -15.953125 19.3125 -15.609375 C 19.207031 -15.191406 19.179688 -14.914062 19.234375 -14.78125 C 19.285156 -14.644531 19.398438 -14.59375 19.578125 -14.625 C 19.753906 -14.664062 19.960938 -14.75 20.203125 -14.875 C 20.265625 -14.90625 20.335938 -14.929688 20.421875 -14.953125 C 21.347656 -15.367188 22.273438 -15.78125 23.203125 -16.1875 C 24.898438 -16.894531 26.59375 -17.617188 28.28125 -18.359375 C 32.46875 -20.078125 36.695312 -21.660156 40.96875 -23.109375 C 41.726562 -23.359375 42.375 -23.78125 42.90625 -24.375 C 44 -25.519531 45.050781 -26.828125 46.0625 -28.296875 C 47.082031 -29.773438 47.875 -31.316406 48.4375 -32.921875 C 49 -34.535156 49.109375 -36.117188 48.765625 -37.671875 C 48.429688 -39.222656 47.472656 -40.65625 45.890625 -41.96875 C 44.847656 -42.738281 43.722656 -43.34375 42.515625 -43.78125 C 39.953125 -44.65625 36.972656 -45.117188 33.578125 -45.171875 C 30.191406 -45.234375 26.609375 -44.976562 22.828125 -44.40625 C 19.054688 -43.832031 15.3125 -43.03125 11.59375 -42 C 7.882812 -40.96875 4.441406 -39.8125 1.265625 -38.53125 C -1.898438 -37.25 -4.59375 -35.941406 -6.8125 -34.609375 C -8.707031 -33.472656 -10.484375 -32.160156 -12.140625 -30.671875 C -12.816406 -30.097656 -13.4375 -29.476562 -14 -28.8125 C -14.570312 -28.15625 -15.054688 -27.4375 -15.453125 -26.65625 C -15.617188 -26.320312 -15.859375 -26.117188 -16.171875 -26.046875 C -16.234375 -26.035156 -16.3125 -26.023438 -16.40625 -26.015625 C -16.425781 -26.003906 -16.445312 -26 -16.46875 -26 C -16.601562 -25.976562 -16.734375 -25.96875 -16.859375 -25.96875 C -16.984375 -25.976562 -17.085938 -26.035156 -17.171875 -26.140625 C -17.222656 -26.222656 -17.253906 -26.3125 -17.265625 -26.40625 C -17.285156 -26.5 -17.289062 -26.585938 -17.28125 -26.671875 C -17.1875 -27.085938 -17.015625 -27.472656 -16.765625 -27.828125 C -16.523438 -28.179688 -16.285156 -28.523438 -16.046875 -28.859375 C -15.347656 -29.671875 -14.613281 -30.414062 -13.84375 -31.09375 C -13.070312 -31.78125 -12.273438 -32.4375 -11.453125 -33.0625 C -9.328125 -34.6875 -6.535156 -36.28125 -3.078125 -37.84375 C 0.367188 -39.414062 4.207031 -40.851562 8.4375 -42.15625 C 12.664062 -43.46875 16.972656 -44.507812 21.359375 -45.28125 C 25.753906 -46.050781 29.921875 -46.425781 33.859375 -46.40625 C 37.796875 -46.394531 41.234375 -45.859375 44.171875 -44.796875 C 45.472656 -44.335938 46.6875 -43.675781 47.8125 -42.8125 C 49.414062 -41.507812 50.425781 -40.132812 50.84375 -38.6875 C 51.269531 -37.238281 51.300781 -35.769531 50.9375 -34.28125 C 50.570312 -32.789062 49.96875 -31.332031 49.125 -29.90625 C 48.289062 -28.476562 47.421875 -27.128906 46.515625 -25.859375 C 46.390625 -25.722656 46.273438 -25.5625 46.171875 -25.375 C 46.066406 -25.195312 46.035156 -25.054688 46.078125 -24.953125 C 46.117188 -24.847656 46.289062 -24.84375 46.59375 -24.9375 C 50.164062 -26.125 53.753906 -27.164062 57.359375 -28.0625 C 60.972656 -28.957031 64.628906 -29.765625 68.328125 -30.484375 C 68.429688 -30.503906 68.53125 -30.519531 68.625 -30.53125 L 68.65625 -30.53125 C 68.957031 -30.582031 69.265625 -30.613281 69.578125 -30.625 Z M 14.328125 -5.296875 C 14.367188 -5.492188 14.46875 -5.796875 14.625 -6.203125 C 14.84375 -6.835938 15.0625 -7.539062 15.28125 -8.3125 C 15.507812 -9.082031 15.65625 -9.75 15.71875 -10.3125 C 15.789062 -10.882812 15.664062 -11.164062 15.34375 -11.15625 C 15.164062 -11.09375 14.988281 -11.019531 14.8125 -10.9375 C 14.769531 -10.925781 14.722656 -10.90625 14.671875 -10.875 C 13.992188 -10.53125 13.316406 -10.207031 12.640625 -9.90625 C 11.035156 -9.144531 9.441406 -8.351562 7.859375 -7.53125 C 7.773438 -7.5 7.691406 -7.453125 7.609375 -7.390625 C 4.734375 -5.972656 1.921875 -4.425781 -0.828125 -2.75 C -2.222656 -1.894531 -3.507812 -0.925781 -4.6875 0.15625 C -5.15625 0.53125 -5.515625 0.988281 -5.765625 1.53125 C -5.859375 1.738281 -5.863281 1.921875 -5.78125 2.078125 C -5.707031 2.234375 -5.546875 2.34375 -5.296875 2.40625 C -4.828125 2.476562 -4.351562 2.472656 -3.875 2.390625 C -3.457031 2.328125 -3.046875 2.242188 -2.640625 2.140625 C -2.617188 2.140625 -2.609375 2.140625 -2.609375 2.140625 C -0.460938 1.554688 1.617188 0.847656 3.640625 0.015625 C 6.859375 -1.265625 10.015625 -2.660156 13.109375 -4.171875 C 13.160156 -4.203125 13.195312 -4.222656 13.21875 -4.234375 C 13.457031 -4.335938 13.675781 -4.46875 13.875 -4.625 C 14.082031 -4.78125 14.234375 -5.003906 14.328125 -5.296875 Z M 17.015625 -6.328125 C 18.910156 -7.148438 21.441406 -8.53125 24.609375 -10.46875 C 27.785156 -12.40625 30.8125 -14.40625 33.6875 -16.46875 C 36.5625 -18.53125 38.492188 -20.160156 39.484375 -21.359375 C 39.328125 -21.335938 39.191406 -21.316406 39.078125 -21.296875 C 39.023438 -21.285156 38.992188 -21.28125 38.984375 -21.28125 C 32.316406 -18.789062 25.757812 -16.054688 19.3125 -13.078125 C 18.75 -12.804688 18.40625 -12.382812 18.28125 -11.8125 C 18.007812 -10.863281 17.75 -9.925781 17.5 -9 C 17.289062 -8.3125 17.082031 -7.617188 16.875 -6.921875 C 16.84375 -6.828125 16.832031 -6.71875 16.84375 -6.59375 C 16.863281 -6.476562 16.921875 -6.390625 17.015625 -6.328125 Z M 17.015625 -6.328125 "/></g></g></g><g fill="#000000" fill-opacity="1"><g transform="translate(256.735344, 193.029303)"><g><path d="M 5.671875 -10.328125 C 5.691406 -9.628906 5.441406 -9.128906 4.921875 -8.828125 C 4.398438 -8.535156 4.175781 -8.785156 4.25 -9.578125 C 4.320312 -10.367188 3.945312 -10.503906 3.125 -9.984375 C 2.3125 -9.460938 1.671875 -8.875 1.203125 -8.21875 C 0.472656 -7.175781 -0.144531 -6.082031 -0.65625 -4.9375 C -0.71875 -4.832031 -0.765625 -4.75 -0.796875 -4.6875 C -0.941406 -4.363281 -1.09375 -4.054688 -1.25 -3.765625 C -1.34375 -3.566406 -1.472656 -3.429688 -1.640625 -3.359375 C -1.816406 -3.285156 -2.003906 -3.25 -2.203125 -3.25 C -2.359375 -3.25 -2.488281 -3.296875 -2.59375 -3.390625 C -2.707031 -3.484375 -2.738281 -3.609375 -2.6875 -3.765625 C -2.625 -4.054688 -2.546875 -4.351562 -2.453125 -4.65625 C -1.816406 -6.46875 -1.171875 -8.28125 -0.515625 -10.09375 C -0.492188 -10.125 -0.488281 -10.148438 -0.5 -10.171875 C -0.414062 -10.441406 -0.296875 -10.707031 -0.140625 -10.96875 C 0.00390625 -11.21875 0.210938 -11.34375 0.484375 -11.34375 C 0.753906 -11.34375 0.957031 -11.210938 1.09375 -10.953125 C 1.257812 -10.628906 1.382812 -10.445312 1.46875 -10.40625 C 1.550781 -10.375 1.722656 -10.441406 1.984375 -10.609375 C 2.554688 -10.910156 3.117188 -11.15625 3.671875 -11.34375 C 4.222656 -11.53125 4.691406 -11.582031 5.078125 -11.5 C 5.460938 -11.425781 5.660156 -11.035156 5.671875 -10.328125 Z M 5.671875 -10.328125 "/></g></g></g><g fill="#000000" fill-opacity="1"><g transform="translate(264.204862, 191.816076)"><g><path d="M 9.609375 -9.375 C 9.867188 -9.28125 9.9375 -8.953125 9.8125 -8.390625 C 9.582031 -7.972656 9.328125 -7.570312 9.046875 -7.1875 C 8.773438 -6.800781 8.46875 -6.445312 8.125 -6.125 C 8.101562 -6.125 8.097656 -6.113281 8.109375 -6.09375 C 7.859375 -5.875 7.597656 -5.671875 7.328125 -5.484375 C 5.097656 -4.253906 3.804688 -4.566406 3.453125 -6.421875 C 2.628906 -5.421875 2.066406 -4.800781 1.765625 -4.5625 C 1.046875 -3.96875 0.222656 -3.625 -0.703125 -3.53125 C -1.378906 -3.445312 -1.867188 -3.570312 -2.171875 -3.90625 C -2.472656 -4.25 -2.535156 -4.757812 -2.359375 -5.4375 C -2.078125 -6.519531 -1.597656 -7.519531 -0.921875 -8.4375 C -0.128906 -9.46875 0.804688 -10.335938 1.890625 -11.046875 C 2.453125 -11.460938 3.070312 -11.6875 3.75 -11.71875 C 4.445312 -11.789062 4.921875 -11.476562 5.171875 -10.78125 C 5.273438 -10.5625 5.25 -10.351562 5.09375 -10.15625 C 4.914062 -9.9375 4.675781 -9.851562 4.375 -9.90625 C 4.351562 -9.894531 4.320312 -9.890625 4.28125 -9.890625 C 4.25 -9.898438 4.21875 -9.914062 4.1875 -9.9375 C 3.84375 -10.289062 3.523438 -10.410156 3.234375 -10.296875 C 2.953125 -10.179688 2.664062 -10 2.375 -9.75 C 0.988281 -8.601562 0.0507812 -7.164062 -0.4375 -5.4375 C -0.46875 -5.375 -0.476562 -5.300781 -0.46875 -5.21875 C -0.46875 -5.132812 -0.429688 -5.066406 -0.359375 -5.015625 C -0.171875 -4.984375 0.0195312 -5.023438 0.21875 -5.140625 C 0.425781 -5.265625 0.625 -5.425781 0.8125 -5.625 C 1.007812 -5.820312 1.171875 -5.988281 1.296875 -6.125 C 1.316406 -6.164062 1.328125 -6.1875 1.328125 -6.1875 C 1.953125 -6.90625 2.5625 -7.644531 3.15625 -8.40625 C 3.414062 -8.78125 3.765625 -9.023438 4.203125 -9.140625 C 4.867188 -9.242188 5.203125 -8.992188 5.203125 -8.390625 C 5.171875 -8.148438 5.132812 -7.914062 5.09375 -7.6875 C 4.988281 -6.707031 5.066406 -6.15625 5.328125 -6.03125 C 5.597656 -5.90625 5.960938 -5.960938 6.421875 -6.203125 C 6.890625 -6.453125 7.332031 -6.84375 7.75 -7.375 C 8.175781 -7.914062 8.523438 -8.40625 8.796875 -8.84375 C 9.078125 -9.289062 9.347656 -9.46875 9.609375 -9.375 Z M 9.609375 -9.375 "/></g></g></g><g fill="#000000" fill-opacity="1"><g transform="translate(274.109449, 190.207336)"><g><path d="M 10.34375 -9.5 C 10.445312 -9.40625 10.484375 -9.296875 10.453125 -9.171875 C 10.429688 -9.054688 10.367188 -8.945312 10.265625 -8.84375 C 9.679688 -8.113281 9 -7.492188 8.21875 -6.984375 C 6.875 -6.078125 5.421875 -5.410156 3.859375 -4.984375 C 2.617188 -4.671875 1.390625 -4.671875 0.171875 -4.984375 C -0.273438 -5.097656 -0.566406 -4.945312 -0.703125 -4.53125 C -0.890625 -3.9375 -1.09375 -3.34375 -1.3125 -2.75 C -1.414062 -2.414062 -1.53125 -2.066406 -1.65625 -1.703125 C -1.664062 -1.660156 -1.679688 -1.609375 -1.703125 -1.546875 C -1.753906 -1.441406 -1.800781 -1.332031 -1.84375 -1.21875 C -1.894531 -1.101562 -1.992188 -1.015625 -2.140625 -0.953125 C -2.222656 -0.921875 -2.304688 -0.894531 -2.390625 -0.875 C -2.484375 -0.863281 -2.566406 -0.875 -2.640625 -0.90625 C -2.710938 -0.945312 -2.773438 -1.003906 -2.828125 -1.078125 C -2.890625 -1.160156 -2.925781 -1.242188 -2.9375 -1.328125 C -2.925781 -1.617188 -2.875 -1.921875 -2.78125 -2.234375 C -2.601562 -2.921875 -2.4375 -3.59375 -2.28125 -4.25 C -1.851562 -5.9375 -1.390625 -7.601562 -0.890625 -9.25 C 0.484375 -13.820312 1.753906 -18.414062 2.921875 -23.03125 C 2.992188 -23.476562 3.132812 -23.890625 3.34375 -24.265625 C 3.507812 -24.523438 3.769531 -24.625 4.125 -24.5625 C 4.507812 -24.488281 4.664062 -24.257812 4.59375 -23.875 C 4.46875 -23.09375 4.328125 -22.3125 4.171875 -21.53125 C 3.335938 -17.875 2.367188 -14.269531 1.265625 -10.71875 C 1.023438 -9.957031 0.96875 -9.492188 1.09375 -9.328125 C 1.226562 -9.160156 1.46875 -9.179688 1.8125 -9.390625 C 2.15625 -9.609375 2.550781 -9.882812 3 -10.21875 C 3.3125 -10.488281 3.628906 -10.722656 3.953125 -10.921875 C 4.015625 -10.984375 4.078125 -11.03125 4.140625 -11.0625 C 4.523438 -11.363281 4.957031 -11.5625 5.4375 -11.65625 C 5.625 -11.6875 5.773438 -11.628906 5.890625 -11.484375 C 5.960938 -11.378906 5.984375 -11.28125 5.953125 -11.1875 C 5.921875 -11.101562 5.875 -11.039062 5.8125 -11 C 5.132812 -10.425781 4.441406 -9.878906 3.734375 -9.359375 C 3.390625 -9.128906 3.039062 -8.878906 2.6875 -8.609375 C 2.320312 -8.378906 1.96875 -8.132812 1.625 -7.875 C 1.382812 -7.675781 1.171875 -7.460938 0.984375 -7.234375 C 0.566406 -6.617188 0.691406 -6.1875 1.359375 -5.9375 C 1.898438 -5.8125 2.425781 -5.78125 2.9375 -5.84375 C 3.457031 -5.914062 3.96875 -6.054688 4.46875 -6.265625 C 5.976562 -6.878906 7.363281 -7.695312 8.625 -8.71875 C 8.71875 -8.789062 8.816406 -8.863281 8.921875 -8.9375 C 9.148438 -9.144531 9.398438 -9.335938 9.671875 -9.515625 C 9.773438 -9.578125 9.890625 -9.613281 10.015625 -9.625 C 10.140625 -9.632812 10.25 -9.59375 10.34375 -9.5 Z M 10.34375 -9.5 "/></g></g></g><g fill="#000000" fill-opacity="1"><g transform="translate(284.626531, 188.499112)"><g><path d="M 9.609375 -9.375 C 9.867188 -9.28125 9.9375 -8.953125 9.8125 -8.390625 C 9.582031 -7.972656 9.328125 -7.570312 9.046875 -7.1875 C 8.773438 -6.800781 8.46875 -6.445312 8.125 -6.125 C 8.101562 -6.125 8.097656 -6.113281 8.109375 -6.09375 C 7.859375 -5.875 7.597656 -5.671875 7.328125 -5.484375 C 5.097656 -4.253906 3.804688 -4.566406 3.453125 -6.421875 C 2.628906 -5.421875 2.066406 -4.800781 1.765625 -4.5625 C 1.046875 -3.96875 0.222656 -3.625 -0.703125 -3.53125 C -1.378906 -3.445312 -1.867188 -3.570312 -2.171875 -3.90625 C -2.472656 -4.25 -2.535156 -4.757812 -2.359375 -5.4375 C -2.078125 -6.519531 -1.597656 -7.519531 -0.921875 -8.4375 C -0.128906 -9.46875 0.804688 -10.335938 1.890625 -11.046875 C 2.453125 -11.460938 3.070312 -11.6875 3.75 -11.71875 C 4.445312 -11.789062 4.921875 -11.476562 5.171875 -10.78125 C 5.273438 -10.5625 5.25 -10.351562 5.09375 -10.15625 C 4.914062 -9.9375 4.675781 -9.851562 4.375 -9.90625 C 4.351562 -9.894531 4.320312 -9.890625 4.28125 -9.890625 C 4.25 -9.898438 4.21875 -9.914062 4.1875 -9.9375 C 3.84375 -10.289062 3.523438 -10.410156 3.234375 -10.296875 C 2.953125 -10.179688 2.664062 -10 2.375 -9.75 C 0.988281 -8.601562 0.0507812 -7.164062 -0.4375 -5.4375 C -0.46875 -5.375 -0.476562 -5.300781 -0.46875 -5.21875 C -0.46875 -5.132812 -0.429688 -5.066406 -0.359375 -5.015625 C -0.171875 -4.984375 0.0195312 -5.023438 0.21875 -5.140625 C 0.425781 -5.265625 0.625 -5.425781 0.8125 -5.625 C 1.007812 -5.820312 1.171875 -5.988281 1.296875 -6.125 C 1.316406 -6.164062 1.328125 -6.1875 1.328125 -6.1875 C 1.953125 -6.90625 2.5625 -7.644531 3.15625 -8.40625 C 3.414062 -8.78125 3.765625 -9.023438 4.203125 -9.140625 C 4.867188 -9.242188 5.203125 -8.992188 5.203125 -8.390625 C 5.171875 -8.148438 5.132812 -7.914062 5.09375 -7.6875 C 4.988281 -6.707031 5.066406 -6.15625 5.328125 -6.03125 C 5.597656 -5.90625 5.960938 -5.960938 6.421875 -6.203125 C 6.890625 -6.453125 7.332031 -6.84375 7.75 -7.375 C 8.175781 -7.914062 8.523438 -8.40625 8.796875 -8.84375 C 9.078125 -9.289062 9.347656 -9.46875 9.609375 -9.375 Z M 9.609375 -9.375 "/></g></g></g><g fill="#000000" fill-opacity="1"><g transform="translate(294.531118, 186.890372)"><g><path d="M 6 -8.75 C 4.519531 -7.90625 3.460938 -7.242188 2.828125 -6.765625 C 2.359375 -6.429688 2.097656 -6.175781 2.046875 -6 C 2.003906 -5.820312 2.109375 -5.523438 2.359375 -5.109375 C 2.359375 -5.085938 2.378906 -5.066406 2.421875 -5.046875 C 2.734375 -4.546875 2.957031 -4.019531 3.09375 -3.46875 C 3.34375 -2.332031 2.492188 -1.367188 0.546875 -0.578125 C -1.390625 0.210938 -2.734375 0.445312 -3.484375 0.125 C -4.234375 -0.195312 -4.53125 -0.707031 -4.375 -1.40625 C -4.21875 -2.101562 -3.640625 -2.878906 -2.640625 -3.734375 C -1.648438 -4.597656 -0.992188 -5.207031 -0.671875 -5.5625 C -0.347656 -5.925781 -0.285156 -6.28125 -0.484375 -6.625 C -0.554688 -6.738281 -0.632812 -6.859375 -0.71875 -6.984375 C -0.894531 -7.273438 -1.082031 -7.570312 -1.28125 -7.875 C -1.632812 -8.4375 -1.835938 -9.003906 -1.890625 -9.578125 C -1.953125 -10.160156 -1.820312 -10.679688 -1.5 -11.140625 C -1.175781 -11.597656 -0.597656 -11.90625 0.234375 -12.0625 C 0.703125 -12.15625 1.128906 -12.160156 1.515625 -12.078125 C 1.910156 -12.003906 2.242188 -11.789062 2.515625 -11.4375 C 2.753906 -11.1875 2.742188 -10.9375 2.484375 -10.6875 C 2.316406 -10.507812 2.117188 -10.453125 1.890625 -10.515625 C 1.734375 -10.554688 1.582031 -10.617188 1.4375 -10.703125 C 1.425781 -10.734375 1.421875 -10.75 1.421875 -10.75 C 1.359375 -10.769531 1.300781 -10.796875 1.25 -10.828125 C 1.175781 -10.910156 1.097656 -10.972656 1.015625 -11.015625 C 0.722656 -11.160156 0.453125 -11.175781 0.203125 -11.0625 C -0.046875 -10.945312 -0.207031 -10.710938 -0.28125 -10.359375 C -0.332031 -10.097656 -0.335938 -9.828125 -0.296875 -9.546875 C -0.222656 -9.222656 -0.09375 -8.914062 0.09375 -8.625 C 0.21875 -8.457031 0.320312 -8.296875 0.40625 -8.140625 C 0.644531 -7.734375 0.832031 -7.457031 0.96875 -7.3125 C 1.101562 -7.164062 1.242188 -7.113281 1.390625 -7.15625 C 1.546875 -7.207031 2.878906 -7.945312 5.390625 -9.375 C 5.941406 -9.65625 6.144531 -9.445312 6 -8.75 Z M 0.453125 -1.984375 C 1.109375 -2.335938 1.332031 -2.851562 1.125 -3.53125 C 1.113281 -3.582031 1.09375 -3.640625 1.0625 -3.703125 C 0.957031 -4.078125 0.828125 -4.351562 0.671875 -4.53125 C 0.523438 -4.71875 0.257812 -4.664062 -0.125 -4.375 C -1.0625 -3.625 -1.90625 -2.78125 -2.65625 -1.84375 C -2.707031 -1.769531 -2.753906 -1.695312 -2.796875 -1.625 C -2.796875 -1.625 -2.804688 -1.609375 -2.828125 -1.578125 C -2.867188 -1.484375 -2.859375 -1.390625 -2.796875 -1.296875 C -2.742188 -1.210938 -2.644531 -1.1875 -2.5 -1.21875 C -1.457031 -1.207031 -0.472656 -1.460938 0.453125 -1.984375 Z M 0.453125 -1.984375 "/></g></g></g><g fill="#000000" fill-opacity="1"><g transform="translate(301.149117, 185.815452)"><g><path d="M 11.015625 -8.921875 C 10.847656 -8.734375 10.675781 -8.5625 10.5 -8.40625 C 9.925781 -7.90625 9.398438 -7.5 8.921875 -7.1875 C 8.441406 -6.875 7.875 -6.539062 7.21875 -6.1875 C 6.238281 -5.707031 5.5625 -5.664062 5.1875 -6.0625 C 4.820312 -6.46875 4.679688 -7.082031 4.765625 -7.90625 C 4.859375 -9.101562 4.882812 -9.96875 4.84375 -10.5 C 4.800781 -11.03125 4.597656 -11.179688 4.234375 -10.953125 C 3.867188 -10.734375 3.238281 -10.070312 2.34375 -8.96875 C 1.113281 -7.488281 0.113281 -5.863281 -0.65625 -4.09375 C -0.757812 -3.851562 -0.890625 -3.644531 -1.046875 -3.46875 C -1.210938 -3.300781 -1.441406 -3.195312 -1.734375 -3.15625 C -2.003906 -3.101562 -2.207031 -3.140625 -2.34375 -3.265625 C -2.476562 -3.390625 -2.515625 -3.582031 -2.453125 -3.84375 C -2.066406 -5.226562 -1.671875 -6.601562 -1.265625 -7.96875 C -0.554688 -10.363281 0.117188 -12.742188 0.765625 -15.109375 C 1.273438 -16.867188 1.769531 -18.628906 2.25 -20.390625 C 2.550781 -21.421875 2.84375 -22.457031 3.125 -23.5 C 3.15625 -23.59375 3.1875 -23.691406 3.21875 -23.796875 C 3.238281 -23.898438 3.265625 -24.015625 3.296875 -24.140625 C 3.335938 -24.265625 3.382812 -24.390625 3.4375 -24.515625 C 3.488281 -24.640625 3.585938 -24.75 3.734375 -24.84375 C 3.878906 -24.9375 4.035156 -25.003906 4.203125 -25.046875 C 4.367188 -25.097656 4.492188 -25.113281 4.578125 -25.09375 C 4.734375 -25.03125 4.828125 -24.945312 4.859375 -24.84375 C 4.890625 -24.738281 4.890625 -24.632812 4.859375 -24.53125 C 4.835938 -24.507812 4.832031 -24.472656 4.84375 -24.421875 C 4.738281 -23.796875 4.613281 -23.191406 4.46875 -22.609375 C 3.707031 -19.359375 2.820312 -16.132812 1.8125 -12.9375 C 1.726562 -12.71875 1.632812 -12.457031 1.53125 -12.15625 C 1.382812 -11.71875 1.25 -11.289062 1.125 -10.875 C 1 -10.457031 0.976562 -10.1875 1.0625 -10.0625 C 1.144531 -9.945312 1.425781 -10.101562 1.90625 -10.53125 C 2.039062 -10.664062 2.164062 -10.796875 2.28125 -10.921875 C 2.644531 -11.265625 3.015625 -11.597656 3.390625 -11.921875 C 3.703125 -12.203125 4.082031 -12.390625 4.53125 -12.484375 C 5.550781 -12.734375 6.210938 -12.363281 6.515625 -11.375 C 6.628906 -10.957031 6.675781 -10.546875 6.65625 -10.140625 C 6.632812 -9.734375 6.601562 -9.328125 6.5625 -8.921875 C 6.5625 -8.804688 6.5625 -8.695312 6.5625 -8.59375 C 6.488281 -7.882812 6.597656 -7.5 6.890625 -7.4375 C 7.191406 -7.375 7.570312 -7.488281 8.03125 -7.78125 C 8.488281 -8.070312 8.941406 -8.410156 9.390625 -8.796875 C 9.722656 -9.035156 10.007812 -9.238281 10.25 -9.40625 C 10.488281 -9.582031 10.675781 -9.671875 10.8125 -9.671875 C 11.050781 -9.671875 11.171875 -9.585938 11.171875 -9.421875 C 11.179688 -9.265625 11.128906 -9.097656 11.015625 -8.921875 Z M 11.015625 -8.921875 "/></g></g></g></svg>